<svg xmlns="http://www.w3.org/2000/svg" xmlns:xlink="http://www.w3.org/1999/xlink" width="292" height="169" viewBox="0 0 292 169"><defs><style>.a,.f{fill:#fff;}.a{stroke:#707070;}.b{clip-path:url(#a);}.c{fill:#3f3d56;}.d{fill:#f2f2f2;}.e{fill:#6ca856;}.g{fill:#ff6584;}.h{fill:#a0616a;}.i{fill:#2f2e41;}.j{fill:#d0cde1;}</style><clipPath id="a"><rect class="a" width="292" height="169" transform="translate(61 247)"/></clipPath></defs><g class="b" transform="translate(-61 -247)"><g transform="translate(67.878 247)"><ellipse class="c" cx="40.801" cy="7.484" rx="40.801" ry="7.484" transform="translate(192.419 154.031)"/><circle class="d" cx="57.943" cy="57.943" r="57.943" transform="translate(86.914 10.381)"/><path class="c" d="M154.7,151.134c-.67,0-1.346-.011-2.011-.031l.015-.482c.954.03,1.927.038,2.885.025l.007.483Q155.145,151.134,154.7,151.134Zm3.8-.112-.028-.482c.955-.056,1.922-.136,2.875-.235l.05.48c-.96.1-1.935.181-2.9.237Zm-8.715-.075c-.963-.074-1.936-.17-2.893-.288l.059-.479c.949.116,1.915.212,2.871.286Zm14.5-.531-.072-.477c.949-.144,1.905-.311,2.841-.5l.094.473c-.944.188-1.907.356-2.863.5Zm-20.264-.177c-.951-.161-1.912-.347-2.854-.551l.1-.472c.935.2,1.888.387,2.833.547Zm25.965-.957-.116-.469c.932-.23,1.868-.485,2.784-.757l.137.463C171.861,148.795,170.917,149.051,169.979,149.283Zm-31.645-.277c-.933-.248-1.872-.521-2.792-.812l.145-.46c.912.288,1.844.559,2.77.805Zm37.218-1.376-.158-.456c.9-.314,1.813-.654,2.7-1.01l.179.448c-.9.359-1.812.7-2.723,1.018Zm-42.768-.378c-.906-.333-1.818-.693-2.711-1.069l.187-.445c.885.373,1.79.73,2.69,1.061Zm48.159-1.779-.2-.439c.868-.394,1.741-.816,2.593-1.251l.22.43c-.86.439-1.739.863-2.613,1.261Zm-53.527-.481c-.871-.415-1.746-.857-2.6-1.313l.228-.426c.847.452,1.715.891,2.579,1.3Zm58.693-2.159-.239-.419c.833-.475,1.664-.974,2.47-1.484l.258.408c-.813.514-1.65,1.017-2.489,1.5Zm-63.828-.584c-.829-.493-1.659-1.013-2.467-1.545l.266-.4c.8.528,1.625,1.044,2.448,1.533Zm68.734-2.52-.276-.4c.784-.548,1.566-1.121,2.325-1.7l.294.383c-.765.588-1.553,1.166-2.343,1.717Zm-73.594-.68c-.779-.566-1.558-1.159-2.314-1.763l.3-.377c.75.6,1.523,1.188,2.3,1.749Zm78.2-2.86-.311-.369c.731-.617,1.458-1.259,2.162-1.91l.328.355c-.709.656-1.442,1.3-2.178,1.924Zm-82.744-.769c-.726-.636-1.447-1.3-2.143-1.965l.334-.348c.691.663,1.407,1.32,2.127,1.951Zm87.011-3.177-.344-.339c.674-.683,1.34-1.389,1.98-2.1l.359.323c-.645.716-1.316,1.427-2,2.115Zm-91.205-.848c-.666-.7-1.324-1.424-1.955-2.151l.365-.316c.626.722,1.279,1.44,1.94,2.135Zm95.1-3.472-.373-.306c.609-.741,1.208-1.5,1.781-2.272l.387.289c-.578.773-1.182,1.543-1.8,2.289Zm-98.906-.917c-.6-.756-1.187-1.536-1.75-2.319l.392-.282c.559.777,1.143,1.551,1.737,2.3Zm102.39-3.741-.4-.271c.538-.793,1.066-1.609,1.567-2.426l.412.253c-.506.823-1.037,1.645-1.58,2.444Zm-105.782-.973c-.526-.807-1.041-1.636-1.531-2.467l.416-.245c.486.824,1,1.648,1.519,2.448ZM210.309,118.3l-.423-.233c.464-.839.914-1.7,1.339-2.561l.433.214c-.428.867-.882,1.735-1.35,2.58ZM98.534,117.29c-.45-.851-.887-1.724-1.3-2.6l.437-.206c.408.864.841,1.731,1.288,2.576Zm114.353-4.2-.442-.194c.385-.879.754-1.779,1.1-2.675l.451.173c-.347.9-.719,1.81-1.107,2.7ZM96.06,112.043c-.37-.888-.725-1.8-1.054-2.7l.454-.165c.326.9.678,1.8,1.045,2.681Zm118.916-4.4-.458-.152c.3-.908.586-1.836.845-2.759l.465.131c-.262.93-.548,1.865-.852,2.78Zm-120.9-1.058c-.287-.92-.557-1.86-.8-2.794l.467-.123c.243.927.511,1.86.8,2.773Zm122.473-4.538-.47-.109c.216-.931.414-1.881.588-2.824l.475.087C216.966,100.154,216.767,101.111,216.549,102.049ZM92.6,100.964c-.2-.943-.384-1.9-.542-2.856l.476-.079c.157.945.338,1.9.538,2.834Zm125-4.631-.479-.066c.13-.946.24-1.91.326-2.866l.481.043c-.087.964-.2,1.935-.328,2.889ZM91.649,95.23c-.114-.956-.207-1.929-.278-2.893l.482-.035c.07.957.163,1.923.276,2.872Zm126.477-4.686-.482-.022c.043-.957.065-1.927.065-2.884h.483c0,.964-.022,1.942-.065,2.906Zm-126.9-1.111c-.017-.592-.025-1.2-.025-1.795q0-.557.01-1.113l.483.008q-.01.551-.01,1.1c0,.594.008,1.194.025,1.782Zm126.48-2.468c-.01-.957-.042-1.928-.1-2.884l.482-.027c.054.964.086,1.941.1,2.906Zm-125.9-3.313-.482-.03c.06-.965.143-1.939.247-2.9l.48.052C91.949,81.727,91.867,82.694,91.807,83.652ZM217.384,81.2c-.1-.952-.216-1.915-.356-2.863l.478-.07c.141.955.262,1.925.359,2.885ZM92.428,77.917l-.477-.074c.148-.955.32-1.918.511-2.862l.473.1C92.746,76.014,92.575,76.969,92.428,77.917ZM216.541,75.5c-.184-.942-.392-1.89-.618-2.818l.469-.114c.228.935.437,1.891.622,2.839ZM93.572,72.264l-.468-.117c.234-.935.494-1.878.772-2.8l.462.139C94.062,70.4,93.8,71.336,93.572,72.264Zm121.6-2.369c-.269-.919-.563-1.844-.874-2.749l.456-.157c.314.912.61,1.844.882,2.77ZM95.234,66.732l-.456-.16c.321-.913.667-1.83,1.03-2.726l.448.181c-.36.889-.7,1.8-1.022,2.7ZM213.3,64.439c-.352-.889-.729-1.78-1.121-2.651l.44-.2c.395.877.775,1.776,1.13,2.671ZM97.4,61.373l-.439-.2c.4-.878.832-1.759,1.276-2.618l.429.221C98.228,59.627,97.8,60.5,97.4,61.373Zm113.536-2.181c-.432-.852-.89-1.707-1.361-2.539l.42-.238c.475.838.936,1.7,1.371,2.558ZM100.052,56.239,99.633,56c.482-.836.99-1.674,1.51-2.488l.407.26c-.516.809-1.02,1.639-1.5,2.469ZM208.1,54.178c-.51-.812-1.044-1.621-1.588-2.405l.4-.275c.548.79,1.086,1.605,1.6,2.423ZM103.16,51.372l-.395-.278c.557-.789,1.139-1.576,1.73-2.339l.381.3C104.29,49.807,103.712,50.588,103.16,51.372Zm101.657-1.93c-.582-.762-1.188-1.52-1.8-2.252l.37-.31c.618.738,1.229,1.5,1.815,2.269ZM106.7,46.811l-.368-.313c.625-.734,1.276-1.464,1.935-2.171l.353.329C107.963,45.358,107.317,46.083,106.7,46.811Zm94.415-1.789c-.649-.706-1.321-1.406-2-2.08l.34-.343c.683.679,1.361,1.384,2.015,2.1Zm-90.479-2.43-.338-.345c.69-.675,1.4-1.343,2.123-1.985l.322.36C112.028,41.259,111.319,41.922,110.634,42.593Zm86.387-1.637c-.711-.645-1.445-1.281-2.181-1.89l.308-.372c.742.614,1.482,1.255,2.2,1.9Zm-82.086-2.2-.3-.374c.747-.608,1.519-1.208,2.294-1.783l.288.388c-.77.571-1.535,1.166-2.277,1.769Zm77.639-1.474c-.767-.578-1.556-1.144-2.345-1.684l.273-.4c.8.544,1.59,1.115,2.363,1.7Zm-73.008-1.958-.269-.4c.8-.538,1.622-1.064,2.446-1.566l.251.413C121.177,34.262,120.36,34.785,119.567,35.319Zm68.242-1.3c-.816-.505-1.654-1-2.49-1.463l.235-.422c.843.47,1.687.966,2.51,1.475Zm-63.32-1.692-.232-.424c.846-.463,1.713-.912,2.577-1.334l.212.434c-.858.42-1.718.865-2.557,1.324Zm58.274-1.119c-.859-.428-1.739-.842-2.616-1.229l.2-.442c.883.39,1.77.807,2.636,1.238Zm-53.1-1.411-.192-.443c.884-.383,1.788-.75,2.687-1.092l.171.451c-.892.339-1.789.7-2.666,1.083Zm47.815-.926c-.894-.347-1.809-.677-2.72-.983l.154-.458c.918.308,1.84.641,2.741.991ZM135.047,27.75l-.15-.459c.918-.3,1.854-.584,2.783-.842l.129.465c-.922.256-1.851.537-2.761.835ZM172,27.032c-.921-.263-1.86-.507-2.792-.727l.111-.47c.939.221,1.885.468,2.813.732Zm-31.4-.825-.108-.471c.941-.215,1.9-.411,2.848-.582l.086.475C142.489,25.8,141.538,25.994,140.6,26.207Zm25.782-.5c-.94-.176-1.9-.333-2.847-.467l.067-.478c.956.134,1.921.292,2.869.47Zm-20.105-.525-.064-.479c.956-.128,1.928-.235,2.889-.319l.042.481c-.954.083-1.919.19-2.867.316Zm14.393-.277c-.951-.09-1.919-.159-2.878-.205l.024-.482c.965.047,1.941.116,2.9.207Zm-8.647-.224-.02-.482c.887-.037,1.792-.056,2.688-.056h.219v.483H154.7c-.89,0-1.788.019-2.668.056Z" transform="translate(-5.735 -24.143)"/><path class="e" d="M80.714,56.372c-2.024,7.481-8.955,12.114-8.955,12.114s-3.651-7.5-1.627-14.977S79.088,41.4,79.088,41.4,82.738,48.891,80.714,56.372Z" transform="translate(-5.735 -24.143)"/><path class="e" d="M62.3,56.372c2.024,7.481,8.955,12.114,8.955,12.114s3.651-7.5,1.627-14.977S63.931,41.4,63.931,41.4,60.281,48.891,62.3,56.372Z" transform="translate(-5.735 -24.143)"/><path class="c" d="M65.278,54.764c5.553,5.406,6.231,13.715,6.231,13.715s-8.325-.455-13.878-5.86S51.4,48.9,51.4,48.9,59.725,49.358,65.278,54.764Z" transform="translate(-5.735 -24.143)"/><path class="c" d="M77.741,54.764C72.188,60.17,71.509,68.48,71.509,68.48s8.325-.455,13.878-5.86S91.619,48.9,91.619,48.9,83.294,49.358,77.741,54.764Z" transform="translate(-5.735 -24.143)"/><rect class="e" width="154.343" height="75.867" transform="translate(6.908 75.646)"/><rect class="f" width="1.449" height="0.483" transform="translate(32.11 93.433)"/><path class="f" d="M150.325,118.059H147.4v-.483h2.922Zm-5.844,0H141.56v-.483h2.922Zm-5.844,0h-2.922v-.483h2.922Zm-5.844,0h-2.922v-.483h2.922Zm-5.844,0h-2.922v-.483h2.922Zm-5.844,0h-2.922v-.483h2.922Zm-5.844,0h-2.922v-.483h2.922Zm-5.844,0H106.5v-.483h2.922Zm-5.844,0h-2.922v-.483h2.922Zm-5.844,0H94.809v-.483h2.922Zm-5.844,0H88.965v-.483h2.922Zm-5.844,0H83.122v-.483h2.922Zm-5.844,0H77.278v-.483H80.2Zm-5.844,0H71.434v-.483h2.922Zm-5.844,0H65.59v-.483h2.922Zm-5.844,0H59.747v-.483h2.922Zm-5.844,0H53.9v-.483h2.922Zm-5.844,0H48.059v-.483h2.922Zm-5.844,0H42.215v-.483h2.922Z" transform="translate(-5.735 -24.143)"/><rect class="f" width="1.449" height="0.483" transform="translate(147.513 93.433)"/><rect class="f" width="1.449" height="0.483" transform="translate(32.11 103.573)"/><path class="f" d="M150.325,128.2H147.4v-.483h2.922Zm-5.844,0H141.56v-.483h2.922Zm-5.844,0h-2.922v-.483h2.922Zm-5.844,0h-2.922v-.483h2.922Zm-5.844,0h-2.922v-.483h2.922Zm-5.844,0h-2.922v-.483h2.922Zm-5.844,0h-2.922v-.483h2.922Zm-5.844,0H106.5v-.483h2.922Zm-5.844,0h-2.922v-.483h2.922Zm-5.844,0H94.809v-.483h2.922Zm-5.844,0H88.965v-.483h2.922Zm-5.844,0H83.122v-.483h2.922Zm-5.844,0H77.278v-.483H80.2Zm-5.844,0H71.434v-.483h2.922Zm-5.844,0H65.59v-.483h2.922Zm-5.844,0H59.747v-.483h2.922Zm-5.844,0H53.9v-.483h2.922Zm-5.844,0H48.059v-.483h2.922Zm-5.844,0H42.215v-.483h2.922Z" transform="translate(-5.735 -24.143)"/><rect class="f" width="1.449" height="0.483" transform="translate(147.513 103.573)"/><rect class="f" width="1.449" height="0.483" transform="translate(32.11 113.713)"/><path class="f" d="M150.325,138.339H147.4v-.483h2.922Zm-5.844,0H141.56v-.483h2.922Zm-5.844,0h-2.922v-.483h2.922Zm-5.844,0h-2.922v-.483h2.922Zm-5.844,0h-2.922v-.483h2.922Zm-5.844,0h-2.922v-.483h2.922Zm-5.844,0h-2.922v-.483h2.922Zm-5.844,0H106.5v-.483h2.922Zm-5.844,0h-2.922v-.483h2.922Zm-5.844,0H94.809v-.483h2.922Zm-5.844,0H88.965v-.483h2.922Zm-5.844,0H83.122v-.483h2.922Zm-5.844,0H77.278v-.483H80.2Zm-5.844,0H71.434v-.483h2.922Zm-5.844,0H65.59v-.483h2.922Zm-5.844,0H59.747v-.483h2.922Zm-5.844,0H53.9v-.483h2.922Zm-5.844,0H48.059v-.483h2.922Zm-5.844,0H42.215v-.483h2.922Z" transform="translate(-5.735 -24.143)"/><rect class="f" width="1.449" height="0.483" transform="translate(147.513 113.713)"/><rect class="f" width="1.449" height="0.483" transform="translate(32.11 123.853)"/><path class="f" d="M150.325,148.479H147.4V148h2.922Zm-5.844,0H141.56V148h2.922Zm-5.844,0h-2.922V148h2.922Zm-5.844,0h-2.922V148h2.922Zm-5.844,0h-2.922V148h2.922Zm-5.844,0h-2.922V148h2.922Zm-5.844,0h-2.922V148h2.922Zm-5.844,0H106.5V148h2.922Zm-5.844,0h-2.922V148h2.922Zm-5.844,0H94.809V148h2.922Zm-5.844,0H88.965V148h2.922Zm-5.844,0H83.122V148h2.922Zm-5.844,0H77.278V148H80.2Zm-5.844,0H71.434V148h2.922Zm-5.844,0H65.59V148h2.922Zm-5.844,0H59.747V148h2.922Zm-5.844,0H53.9V148h2.922Zm-5.844,0H48.059V148h2.922Zm-5.844,0H42.215V148h2.922Z" transform="translate(-5.735 -24.143)"/><rect class="f" width="1.449" height="0.483" transform="translate(147.513 123.853)"/><rect class="f" width="1.449" height="0.483" transform="translate(32.11 133.993)"/><path class="f" d="M150.325,158.619H147.4v-.483h2.922Zm-5.844,0H141.56v-.483h2.922Zm-5.844,0h-2.922v-.483h2.922Zm-5.844,0h-2.922v-.483h2.922Zm-5.844,0h-2.922v-.483h2.922Zm-5.844,0h-2.922v-.483h2.922Zm-5.844,0h-2.922v-.483h2.922Zm-5.844,0H106.5v-.483h2.922Zm-5.844,0h-2.922v-.483h2.922Zm-5.844,0H94.809v-.483h2.922Zm-5.844,0H88.965v-.483h2.922Zm-5.844,0H83.122v-.483h2.922Zm-5.844,0H77.278v-.483H80.2Zm-5.844,0H71.434v-.483h2.922Zm-5.844,0H65.59v-.483h2.922Zm-5.844,0H59.747v-.483h2.922Zm-5.844,0H53.9v-.483h2.922Zm-5.844,0H48.059v-.483h2.922Zm-5.844,0H42.215v-.483h2.922Z" transform="translate(-5.735 -24.143)"/><rect class="f" width="1.449" height="0.483" transform="translate(147.513 133.993)"/><circle class="c" cx="3.38" cy="3.38" r="3.38" transform="translate(29.213 130.854)"/><circle class="c" cx="3.38" cy="3.38" r="3.38" transform="translate(51.907 120.714)"/><circle class="c" cx="3.38" cy="3.38" r="3.38" transform="translate(75.326 110.574)"/><circle class="c" cx="3.38" cy="3.38" r="3.38" transform="translate(98.503 100.434)"/><circle class="c" cx="3.38" cy="3.38" r="3.38" transform="translate(116.127 110.091)"/><circle class="c" cx="3.38" cy="3.38" r="3.38" transform="translate(133.993 90.294)"/><circle class="f" cx="2.173" cy="2.173" r="2.173" transform="translate(18.831 91.501)"/><circle class="f" cx="2.173" cy="2.173" r="2.173" transform="translate(18.831 101.641)"/><circle class="f" cx="2.173" cy="2.173" r="2.173" transform="translate(18.831 111.781)"/><circle class="f" cx="2.173" cy="2.173" r="2.173" transform="translate(18.831 121.921)"/><circle class="f" cx="2.173" cy="2.173" r="2.173" transform="translate(18.831 132.061)"/><path class="c" d="M137.614,88.121h-.483V44.664H157.17v.483H137.614Z"/><circle class="f" cx="6.277" cy="6.277" r="6.277" transform="translate(141.96 50.459)"/><path class="c" d="M154.7,87.639a7.967,7.967,0,1,1,7.967-7.967A7.967,7.967,0,0,1,154.7,87.639Zm0-15.451a7.484,7.484,0,1,0,7.484,7.484,7.484,7.484,0,0,0-7.484-7.484Z" transform="translate(-5.735 -24.143)"/><path class="c" d="M55.529,117.334h-.483V43.7H75.084v.483H55.529Z"/><circle class="d" cx="6.277" cy="6.277" r="6.277" transform="translate(59.874 49.493)"/><path class="c" d="M72.61,86.673a7.967,7.967,0,1,1,7.967-7.967A7.967,7.967,0,0,1,72.61,86.673Zm0-15.451a7.484,7.484,0,1,0,7.484,7.484A7.484,7.484,0,0,0,72.61,71.221Z" transform="translate(-5.735 -24.143)"/><path class="c" d="M34.645,125.181h-.483V52.028H14.606v-.483H34.645Z"/><circle class="d" cx="6.277" cy="6.277" r="6.277" transform="translate(17.262 57.339)"/><path class="c" d="M28.55,94.519a7.967,7.967,0,1,1,7.967-7.967A7.967,7.967,0,0,1,28.55,94.519Zm0-15.451a7.484,7.484,0,1,0,7.484,7.484A7.484,7.484,0,0,0,28.55,79.068Z" transform="translate(-5.735 -24.143)"/><rect class="c" width="276.918" height="0.483" transform="translate(0 151.376)"/><path class="g" d="M76.261,92.178H66.289a34.878,34.878,0,0,1,0-11.89h9.972a21.393,21.393,0,0,0,0,11.89Z" transform="translate(-5.735 -24.143)"/><path class="e" d="M23.571,98.691h9.972a34.877,34.877,0,0,0,0-11.89H23.571a21.393,21.393,0,0,1,0,11.89Z" transform="translate(-5.735 -24.143)"/><path class="e" d="M149.114,91.449h9.972a34.877,34.877,0,0,0,0-11.89h-9.972a21.393,21.393,0,0,1,0,11.89Z" transform="translate(-5.735 -24.143)"/><path class="c" d="M275.014,175.306a13.069,13.069,0,0,1-1.38-5.17c-.316-3.159-.113-8.484,2.649-15.912a32.088,32.088,0,0,0-1.271-25.538l.318-.184a28.185,28.185,0,0,1,2.659,7.533,32.863,32.863,0,0,1-1.361,18.317c-5.223,14.047-1.34,20.7-1.3,20.763Z" transform="translate(-5.735 -24.143)"/><circle class="c" cx="2.386" cy="2.386" r="2.386" transform="translate(264.846 98.945)"/><circle class="c" cx="2.386" cy="2.386" r="2.386" transform="translate(272.372 107.755)"/><circle class="e" cx="2.386" cy="2.386" r="2.386" transform="translate(267.234 113.628)"/><circle class="e" cx="2.386" cy="2.386" r="2.386" transform="translate(273.473 118.583)"/><circle class="c" cx="2.386" cy="2.386" r="2.386" transform="translate(265.397 126.291)"/><path class="c" d="M276.455,175.394s-2.386-5.873,4.772-10.278Z" transform="translate(-5.735 -24.143)"/><path class="c" d="M273.522,175.287s-1.086-6.245-9.49-6.192Z" transform="translate(-5.735 -24.143)"/><path class="h" d="M224.1,76.752l7.7-11.18s6.705-5.376,4.783-6.423-6.953,3.861-6.953,3.861-14.516,11.128-12.122,12.681S224.1,76.752,224.1,76.752Z" transform="translate(-5.735 -24.143)"/><path class="i" d="M251.148,62.637c-3-5.063-8.925-5.3-8.925-5.3s-5.777-.739-9.483,6.973c-3.454,7.188-8.222,14.128-.768,15.811l1.346-4.191.834,4.5a29.17,29.17,0,0,0,3.189.055c7.983-.258,15.585.075,15.34-2.789C252.358,73.891,254.031,67.509,251.148,62.637Z" transform="translate(-5.735 -24.143)"/><path class="h" d="M235.215,93.849l-3.839,8.829,13.436,2.111s6.334-8.637,6.91-9.213Z" transform="translate(-5.735 -24.143)"/><circle class="h" cx="7.102" cy="7.102" r="7.102" transform="translate(228.713 36.309)"/><path class="h" d="M239.822,72.736s3.263,7.294,2.879,8.061,6.91-4.031,6.91-4.031-3.071-5.182-2.879-5.95Z" transform="translate(-5.735 -24.143)"/><path class="h" d="M250.571,75.807s5.758-3.263,9.021,5.758c0,0,10.749,12.668,8.829,14.971s-9.213-5.566-9.213-5.566l-4.607-4.8s-6.526-1.727-5.95-5.374S250.571,75.807,250.571,75.807Z" transform="translate(-5.735 -24.143)"/><path class="h" d="M237.135,80.222,223.7,76.383s-7.1-2.879-6.91-1.152,13.052,11.516,17.274,10.94S237.135,80.222,237.135,80.222Z" transform="translate(-5.735 -24.143)"/><path class="j" d="M244.813,78.878s-4.415-.576-5.374.384-2.783.1-2.783.1l-3.071,5.566s-2.207,3.167-.48,6.238-.768,7.1-.768,7.1,13.82,0,16.7,1.535,6.349-12.812,6.349-12.812-3.566-4.366-2.606-7.053a8.688,8.688,0,0,0,.384-4.8l-4.223.384Z" transform="translate(-5.735 -24.143)"/><path class="h" d="M222.571,139.572l1.535,14.779,5.95-3.071-1.919-12.86Z"/><path class="h" d="M245.028,139.38l5,13.361,4.8-3.455-5.956-12.977Z"/><path class="i" d="M235.791,170.433a11.986,11.986,0,0,1-1.344,3.071c-.96,1.535-3.263.768-3.263.768s-2.687-2.111-3.263-1.152-3.647,5.758-3.647,5.758-10.173,8.445-1.535,9.789,10.365-4.99,10.365-4.99,6.526-2.3,6.718-4.606S235.791,170.433,235.791,170.433Z" transform="translate(-5.735 -24.143)"/><path class="i" d="M255.946,173.231s-3.071-.96-2.879.576,1.344,7.678,1.344,7.678-2.111,8.637,3.839,7.1,6.142-9.789,6.142-9.789,3.071-10.94.768-11.132-7.869-.768-7.869-.768S260.743,172.463,255.946,173.231Z" transform="translate(-5.735 -24.143)"/><path class="i" d="M244.089,38.006l-5.857-3.068-8.089,1.255-1.674,7.391,4.166-.16,1.164-2.715V43.38l1.922-.074,1.116-4.323.7,4.6,6.834-.14Z"/><path class="i" d="M246.923,104.214,230.8,100.567s-8.061,13.82-9.213,25.336-6.334,39.155,1.919,39.539,13.052.384,13.436-.384-4.031-31.094-4.031-31.094,9.4,37.236,14.587,34.741,10.94-5.758,10.749-7.678-12.668-22.265-12.668-22.265l1.727-17.658s2.111-7.1-1.536-13.628Z" transform="translate(-5.735 -24.143)"/><path class="e" d="M235.3,99.416h9.972a34.878,34.878,0,0,0,0-11.89H235.3a21.393,21.393,0,0,1,0,11.89Z" transform="translate(-5.735 -24.143)"/><path class="h" d="M264.391,90.778,247.5,90.394s-7.486-5.758-7.678-2.3,7.869,5.374,7.869,5.374,17.33,6.219,19.99,3.493Z" transform="translate(-5.735 -24.143)"/></g></g></svg>