<svg xmlns="http://www.w3.org/2000/svg" xmlns:xlink="http://www.w3.org/1999/xlink" width="292" height="169" viewBox="0 0 292 169"><defs><style>.a,.l{fill:#fff;}.a{stroke:#707070;}.b{clip-path:url(#a);}.c{fill:#3f3d56;}.d{fill:#f1f1f1;}.e{fill:#ff6584;}.f{fill:#6ca856;}.g{fill:#f2f2f2;}.h{fill:#2f2e41;}.i{fill:#ffb8b8;}.j{fill:#d0cde1;}.k{opacity:0.1;}</style><clipPath id="a"><rect class="a" width="292" height="169" transform="translate(61 247)"/></clipPath></defs><g class="b" transform="translate(-61 -247)"><g transform="translate(99.251 247)"><path class="c" d="M108.17,123.81v-.361c.719,0,1.448-.01,2.168-.037l.013.361C109.628,123.8,108.894,123.812,108.17,123.81Zm-2.182-.049c-.722-.031-1.455-.076-2.178-.136l.03-.36c.718.059,1.446.1,2.164.135Zm6.544-.112-.028-.36c.717-.055,1.443-.126,2.158-.209l.042.359c-.719.084-1.45.155-2.173.211Zm-10.894-.246c-.72-.089-1.447-.193-2.161-.31l.059-.357c.709.116,1.431.22,2.146.308Zm15.229-.263-.057-.357c.709-.112,1.427-.241,2.134-.382l.071.354c-.712.143-1.435.272-2.149.385ZM97.332,122.7c-.711-.146-1.427-.309-2.129-.483l.087-.351c.7.173,1.409.335,2.114.48Zm23.816-.413-.085-.351c.7-.17,1.406-.356,2.1-.554l.1.348c-.7.2-1.406.386-2.11.557ZM93.1,121.644c-.7-.2-1.4-.424-2.083-.654l.115-.343c.681.229,1.377.448,2.069.65Zm32.248-.561-.113-.343c.683-.226,1.371-.469,2.045-.722l.127.338c-.678.255-1.371.5-2.059.727Zm-36.391-.833c-.677-.259-1.359-.536-2.027-.823l.143-.332c.664.285,1.341.56,2.014.817Zm40.471-.7-.141-.333c.662-.28,1.326-.577,1.974-.883l.154.327c-.653.308-1.322.607-1.988.889Zm-44.49-1.026c-.655-.314-1.313-.645-1.953-.984l.169-.319c.636.337,1.289.666,1.94.977Zm48.429-.831-.167-.32c.638-.333,1.276-.683,1.9-1.04l.18.313c-.626.359-1.269.712-1.911,1.047ZM81.07,116.475c-.629-.366-1.256-.749-1.866-1.138l.194-.3c.605.386,1.229.767,1.854,1.131Zm56.072-.955-.192-.306c.607-.382,1.216-.782,1.81-1.19l.2.3c-.6.411-1.211.813-1.822,1.2Zm-59.757-1.395c-.6-.415-1.191-.847-1.768-1.284l.218-.288c.573.434,1.164.863,1.756,1.275Zm63.351-1.073-.216-.289c.574-.429,1.15-.877,1.71-1.332l.228.281c-.564.457-1.143.909-1.721,1.34ZM73.9,111.488c-.56-.46-1.118-.938-1.658-1.421l.241-.27c.537.479,1.092.954,1.647,1.411Zm70.221-1.185-.239-.271c.54-.475,1.078-.968,1.6-1.465l.249.262c-.524.5-1.065,1-1.609,1.474Zm-73.479-1.721c-.52-.5-1.037-1.023-1.539-1.548l.261-.25c.5.521,1.012,1.039,1.529,1.538Zm76.637-1.291-.26-.251c.5-.516,1-1.051,1.477-1.588l.27.241c-.483.541-.983,1.079-1.487,1.6Zm-79.651-1.865c-.48-.545-.954-1.105-1.41-1.666l.281-.228c.452.557.923,1.114,1.4,1.654Zm82.559-1.392-.279-.23c.459-.557.911-1.13,1.345-1.7l.288.218c-.437.577-.893,1.153-1.354,1.714ZM64.88,102.04c-.434-.58-.861-1.176-1.271-1.772l.3-.2c.407.592.832,1.185,1.263,1.76Zm87.949-1.486-.3-.206c.412-.592.818-1.2,1.2-1.806l.3.194C153.652,99.346,153.244,99.958,152.829,100.554ZM62.41,98.447c-.385-.612-.764-1.24-1.124-1.867l.313-.18c.358.623.734,1.247,1.117,1.855Zm92.771-1.576-.312-.182c.364-.624.719-1.263,1.056-1.9l.319.169c-.339.639-.7,1.282-1.063,1.91Zm-94.943-2.2c-.335-.64-.661-1.3-.97-1.951l.327-.154c.307.65.631,1.3.963,1.938Zm96.991-1.66-.326-.156c.311-.65.614-1.315.9-1.978l.332.143C157.848,91.684,157.543,92.354,157.229,93.008ZM58.378,90.731c-.282-.667-.554-1.347-.809-2.021l.338-.127c.252.67.523,1.345.8,2.007ZM158.959,88.99l-.338-.129c.258-.675.506-1.364.736-2.046l.342.115c-.231.687-.481,1.38-.741,2.059ZM56.842,86.651c-.228-.688-.445-1.39-.644-2.086l.347-.1c.2.691.413,1.388.64,2.072Zm103.515-1.8-.347-.1c.2-.689.392-1.393.567-2.093l.351.087C160.751,83.446,160.559,84.155,160.356,84.848ZM55.639,82.455c-.171-.7-.33-1.421-.473-2.131l.354-.071c.142.7.3,1.417.47,2.117Zm105.772-1.843-.354-.073c.145-.7.278-1.421.4-2.132l.357.059c-.118.716-.252,1.438-.4,2.146ZM54.779,78.176c-.114-.714-.214-1.441-.3-2.162l.359-.042c.084.716.184,1.439.3,2.148Zm107.34-1.87-.359-.044c.088-.715.163-1.441.222-2.157l.36.03c-.059.721-.135,1.451-.224,2.171ZM54.268,73.842c-.056-.722-.1-1.455-.125-2.179l.361-.013c.027.719.069,1.448.124,2.165ZM162.48,71.956l-.361-.015c.031-.72.047-1.449.05-2.168v-.12h.361v.119C162.528,70.5,162.511,71.232,162.48,71.956ZM54.466,69.481H54.1v-.061c0-.705.018-1.419.048-2.121l.361.015c-.029.7-.045,1.407-.047,2.108Zm107.663-1.995c-.027-.718-.07-1.446-.127-2.165l.36-.028c.057.723.1,1.457.127,2.179ZM54.647,65.149l-.36-.029c.059-.724.134-1.454.222-2.172l.359.044C54.78,63.7,54.706,64.43,54.647,65.149Zm107.142-1.985c-.085-.713-.186-1.436-.3-2.147l.357-.057c.115.717.216,1.444.3,2.162ZM55.174,60.845l-.357-.058c.117-.715.25-1.438.4-2.147l.354.073c-.144.7-.277,1.422-.393,2.132ZM161.1,58.883c-.143-.707-.3-1.419-.472-2.116l.351-.086c.172.7.332,1.419.475,2.13ZM56.045,56.6l-.351-.087c.174-.7.365-1.412.568-2.108l.347.1C56.408,55.2,56.218,55.9,56.045,56.6Zm104.029-1.927c-.2-.691-.415-1.388-.642-2.071l.343-.114c.229.688.446,1.389.646,2.085ZM57.258,52.436l-.343-.115c.231-.687.48-1.381.739-2.06l.338.129c-.258.675-.5,1.364-.734,2.047Zm101.448-1.879c-.255-.673-.526-1.348-.805-2.007l.333-.141c.282.663.555,1.343.811,2.02Zm-99.9-2.182-.332-.143c.286-.667.59-1.337.9-1.992l.326.156c-.311.651-.613,1.316-.9,1.979Zm98.206-1.8c-.307-.649-.632-1.3-.965-1.937l.32-.168c.336.64.663,1.3.972,1.95ZM60.683,44.456l-.32-.169c.339-.641.7-1.284,1.061-1.912l.312.182C61.374,43.18,61.019,43.819,60.683,44.456Zm94.324-1.712c-.359-.623-.736-1.247-1.119-1.854l.306-.193c.386.611.765,1.239,1.126,1.866ZM62.866,40.7l-.3-.194c.39-.612.8-1.224,1.211-1.819l.3.206C63.658,39.487,63.253,40.095,62.866,40.7ZM152.7,39.082c-.408-.592-.834-1.184-1.265-1.759l.289-.217c.434.579.862,1.175,1.273,1.771ZM65.343,37.139l-.288-.218c.437-.578.892-1.155,1.352-1.715l.279.229c-.457.556-.909,1.129-1.343,1.7ZM150.1,35.616c-.454-.558-.926-1.114-1.4-1.653l.271-.239c.479.543.954,1.1,1.411,1.664Zm-82-1.828-.27-.24c.482-.541.981-1.079,1.485-1.6l.26.251c-.5.518-1,1.053-1.475,1.59Zm79.13-1.42c-.5-.521-1.013-1.037-1.53-1.536l.251-.26c.521.5,1.039,1.022,1.541,1.546Zm-76.118-1.7-.25-.261c.523-.5,1.064-1,1.607-1.476l.239.271c-.54.476-1.077.97-1.6,1.467Zm73-1.311c-.538-.479-1.093-.953-1.649-1.409l.229-.279c.559.459,1.118.936,1.66,1.419ZM74.359,27.8l-.228-.28c.562-.457,1.141-.909,1.719-1.342l.217.289c-.575.43-1.15.879-1.708,1.333Zm66.393-1.2c-.575-.435-1.167-.863-1.757-1.273l.206-.3c.595.413,1.19.844,1.769,1.282ZM77.827,25.2l-.2-.3c.6-.411,1.21-.815,1.821-1.2l.193.306C79.029,24.394,78.42,24.795,77.827,25.2Zm59.36-1.074c-.608-.387-1.232-.766-1.855-1.128l.182-.312c.627.364,1.255.746,1.867,1.136Zm-55.7-1.236-.18-.313c.626-.36,1.269-.713,1.91-1.049l.168.32c-.637.333-1.275.684-1.9,1.042Zm51.943-.945c-.637-.337-1.29-.665-1.941-.975l.156-.326c.655.313,1.313.643,1.954.982ZM85.324,20.887l-.154-.327c.653-.309,1.321-.608,1.987-.891L87.3,20c-.661.281-1.325.578-1.974.885Zm44.188-.811c-.663-.284-1.341-.559-2.015-.815l.129-.338c.678.259,1.361.535,2.028.821ZM89.305,19.2l-.128-.338c.677-.256,1.369-.5,2.057-.729l.114.343C90.665,18.7,89.978,18.944,89.305,19.2Zm36.146-.67c-.682-.229-1.378-.447-2.069-.647l.1-.347c.7.2,1.4.421,2.083.652Zm-32.031-.7-.1-.347c.7-.2,1.406-.388,2.11-.56l.086.351C94.816,17.447,94.111,17.634,93.42,17.832Zm27.867-.515c-.7-.172-1.409-.333-2.115-.478l.072-.354c.711.145,1.427.307,2.129.481Zm-23.655-.512-.071-.354c.709-.143,1.432-.273,2.148-.387l.057.357C99.054,16.534,98.336,16.664,97.632,16.805Zm19.408-.357c-.71-.116-1.433-.218-2.147-.305l.044-.359c.719.088,1.446.191,2.161.307Zm-15.126-.326-.043-.359c.719-.085,1.45-.157,2.172-.213l.028.36c-.717.056-1.443.127-2.158.212Zm10.823-.2c-.716-.058-1.444-.1-2.164-.132l.015-.361c.725.03,1.457.075,2.179.133Zm-6.5-.14-.014-.361c.723-.027,1.457-.041,2.182-.04v.361c-.721,0-1.45.012-2.168.039Z" transform="translate(-9.62 -3.527)"/><path class="d" d="M201.888,89.612l-34.447,59.665L156.053,169l-2.17-1.252-21.666-12.509L116.043,145.9,57.234,111.948,65.462,0Z"/><path class="c" d="M50.671,117.093a19.482,19.482,0,0,1,25.835-13.7,33.376,33.376,0,0,1,9.838,6.457c5.712,4.972,11.244,10.149,18.143,13.467,6.163,2.964,13.1,4.222,19.8,2.455a20.6,20.6,0,0,0,8.25-4.251,19.423,19.423,0,0,0,5.311-7.9c2.394-6.3,2.347-13.2,4.174-19.649a21.394,21.394,0,0,1,4.825-9,23.592,23.592,0,0,1,8.552-5.6c7.558-2.987,15.738-2.745,23.721-2.639,7.545.1,15.277-.03,22.345-3a23.942,23.942,0,0,0,8.413-5.721,26.432,26.432,0,0,0,5.305-9.433c.61-1.773,1.095-3.584,1.532-5.406.163-.678-.883-.968-1.046-.288a39.051,39.051,0,0,1-4.015,10.908A20.911,20.911,0,0,1,204,71.286c-6.659,3.826-14.52,4.407-22.032,4.391-8.062-.018-16.309-.618-24.141,1.717-6.373,1.9-12.238,5.707-15.189,11.843-2.938,6.108-3.04,13.039-4.5,19.55a24.749,24.749,0,0,1-3.76,9.132,17.62,17.62,0,0,1-7.8,5.961c-6.581,2.637-13.92,1.864-20.308-.933-7.162-3.136-12.9-8.36-18.7-13.46a39.592,39.592,0,0,0-9.119-6.437,20.591,20.591,0,0,0-28.826,13.755c-.166.678.879.967,1.046.288Z" transform="translate(-9.62 -3.527)"/><path class="e" d="M127.462,143.682H109.3a63.505,63.505,0,0,1,0-21.649h18.157A38.953,38.953,0,0,0,127.462,143.682Z" transform="translate(-9.62 -3.527)"/><path class="f" d="M59.542,121.991H77.7a63.505,63.505,0,0,0,0-21.649H59.542A38.953,38.953,0,0,1,59.542,121.991Z" transform="translate(-9.62 -3.527)"/><path class="g" d="M63.39,109.45a4.346,4.346,0,0,1,3.762.283,8.873,8.873,0,0,0,2.927,1.354,4.525,4.525,0,0,0,2.657-.406,15.874,15.874,0,0,0,2.616-2.227c.508-.4-.208-1.108-.711-.711-.884.7-1.515,1.712-2.592,2.14a3.694,3.694,0,0,1-3.322-.378,9.252,9.252,0,0,0-2.6-1.253,5.312,5.312,0,0,0-3.005.228c-.6.224-.341,1.2.267.97Z" transform="translate(-9.62 -3.527)"/><path class="g" d="M63.39,114.312a4.346,4.346,0,0,1,3.762.283,8.873,8.873,0,0,0,2.927,1.354,4.525,4.525,0,0,0,2.657-.406,15.874,15.874,0,0,0,2.616-2.227c.508-.4-.208-1.108-.711-.711-.884.7-1.515,1.712-2.592,2.14a3.694,3.694,0,0,1-3.322-.378,9.253,9.253,0,0,0-2.6-1.253,5.312,5.312,0,0,0-3.005.228c-.6.224-.341,1.2.267.97Z" transform="translate(-9.62 -3.527)"/><path class="g" d="M122.512,128.4a4.346,4.346,0,0,0-3.762.283,8.873,8.873,0,0,1-2.927,1.354,4.525,4.525,0,0,1-2.657-.406,15.874,15.874,0,0,1-2.616-2.227c-.508-.4.208-1.108.711-.711.884.7,1.515,1.712,2.592,2.14a3.694,3.694,0,0,0,3.322-.378,9.252,9.252,0,0,1,2.6-1.253,5.312,5.312,0,0,1,3.005.229c.6.224.341,1.2-.267.97Z" transform="translate(-9.62 -3.527)"/><path class="g" d="M122.512,133.09a4.346,4.346,0,0,0-3.762.283,8.873,8.873,0,0,1-2.927,1.354,4.525,4.525,0,0,1-2.657-.406,15.874,15.874,0,0,1-2.616-2.227c-.508-.4.208-1.108.711-.711.884.7,1.515,1.711,2.592,2.14a3.694,3.694,0,0,0,3.322-.378,9.252,9.252,0,0,1,2.6-1.253,5.312,5.312,0,0,1,3.005.228c.6.224.341,1.2-.267.97Z" transform="translate(-9.62 -3.527)"/><path class="g" d="M122.512,137.784a4.346,4.346,0,0,0-3.762.283,8.874,8.874,0,0,1-2.927,1.354,4.525,4.525,0,0,1-2.657-.406,15.874,15.874,0,0,1-2.616-2.227c-.508-.4.208-1.108.711-.711.884.7,1.515,1.712,2.592,2.14a3.694,3.694,0,0,0,3.322-.378,9.252,9.252,0,0,1,2.6-1.253,5.312,5.312,0,0,1,3.005.228c.6.224.341,1.2-.267.97Z" transform="translate(-9.62 -3.527)"/><path class="h" d="M158.313,44.214c-3.886-6.566-11.574-6.872-11.574-6.872s-7.491-.958-12.3,9.042c-4.479,9.321-10.661,18.32-1,20.5l1.746-5.434,1.081,5.839a37.82,37.82,0,0,0,4.136.071c10.351-.334,20.21.1,19.892-3.617C159.881,58.806,162.052,50.531,158.313,44.214Z" transform="translate(-9.62 -3.527)"/><path class="i" d="M131.786,106.562l-13.1,9.1s-7.645,8.009-2.184,8.009,7.645-6.917,7.645-6.917l16.745-7.281Z" transform="translate(-9.62 -3.527)"/><path class="j" d="M137.064,71.069s-11.467,35.493-7.827,37.313,11.649,2.912,11.649,2.912Z" transform="translate(-9.62 -3.527)"/><path class="k" d="M137.064,71.069s-11.467,35.493-7.827,37.313,11.649,2.912,11.649,2.912Z" transform="translate(-9.62 -3.527)"/><path class="h" d="M177.06,152.8l-11.387,19.723-2.17-1.252c-4.146-15.906-9.147-34.863-9.147-34.863l-12.519,22.354-16.174-9.339c3.871-8.334,10.49-27.94,10.49-27.94l29.488-14.925s9.464,5.824,9.828,20.022.364,22.57.364,22.57S176.314,150.536,177.06,152.8Z" transform="translate(-9.62 -3.527)"/><circle class="i" cx="9.465" cy="9.465" r="9.465" transform="translate(125.26 39.512)"/><path class="i" d="M144.163,60.33s2.184,6.917,0,9.465,12.013-3.64,12.013-3.64-5.1-7.281-3.64-10.557Z" transform="translate(-9.62 -3.527)"/><path class="j" d="M157.622,61.838a9.328,9.328,0,0,1-.9,1.222c-.364.364-2.548.728-2.912,1.456s-5.732,1.766-5.732,1.766l-1.913.782s-9.1,2.184-9.1,4-.728,7.281-.728,7.281-2.912,3.276-1.092,11.285a52.684,52.684,0,0,1,1.131,15.416c-.875,10.121-3.452,21.043-.767,21.714,4.368,1.092,16.745,1.456,20.75-4s4.368-10.193,8.737-10.557-.728-15.289-.728-15.289l5.46-35.675S160.706,58.067,157.622,61.838Z" transform="translate(-9.62 -3.527)"/><path class="f" d="M146.628,118.692h18.157a63.505,63.505,0,0,0,0-21.649H146.628A38.953,38.953,0,0,1,146.628,118.692Z" transform="translate(-9.62 -3.527)"/><path class="g" d="M150.4,104.42a4.346,4.346,0,0,1,3.762.283,8.873,8.873,0,0,0,2.927,1.354,4.525,4.525,0,0,0,2.657-.406,15.873,15.873,0,0,0,2.616-2.227c.508-.4-.208-1.108-.711-.711-.884.7-1.515,1.712-2.592,2.14a3.694,3.694,0,0,1-3.322-.378,9.252,9.252,0,0,0-2.6-1.253,5.312,5.312,0,0,0-3.005.229c-.6.224-.341,1.2.267.97Z" transform="translate(-9.62 -3.527)"/><path class="g" d="M150.4,109.115a4.346,4.346,0,0,1,3.762.283,8.873,8.873,0,0,0,2.927,1.354,4.525,4.525,0,0,0,2.657-.406,15.873,15.873,0,0,0,2.616-2.227c.508-.4-.208-1.108-.711-.711-.884.7-1.515,1.711-2.592,2.14a3.694,3.694,0,0,1-3.322-.378,9.252,9.252,0,0,0-2.6-1.253,5.312,5.312,0,0,0-3.005.228c-.6.224-.341,1.2.267.97Z" transform="translate(-9.62 -3.527)"/><path class="i" d="M176.561,83.992l-13.105,9.1s-7.645,8.009-2.184,8.009,7.645-6.917,7.645-6.917L185.662,86.9Z" transform="translate(-9.62 -3.527)"/><path class="h" d="M154.047,43.581l-7.6-3.978-4.765.739a8.519,8.519,0,0,0-7,6.537l-.891,3.936,5.4-.208,1.509-3.521v3.463l2.493-.1,1.447-5.606.9,5.968,8.861-.181Z" transform="translate(-9.62 -3.527)"/><path class="j" d="M167.278,61.968l2.548-.728S195.672,71.8,194.944,80.9s.364,9.1-4,9.465-17.109-4-16.745-4.732,2.912-4.368,2.912-4.368l-9.829-7.645Z" transform="translate(-9.62 -3.527)"/><circle class="i" cx="1.456" cy="1.456" r="1.456" transform="translate(142.734 47.521)"/><path class="c" d="M168.116,76.808c9.5-.513,19.132.836,28.479-1.463.677-.167.39-1.212-.288-1.046-9.245,2.274-18.793.917-28.191,1.424-.694.037-.7,1.122,0,1.084Z" transform="translate(-9.62 -3.527)"/><path class="f" d="M210.051,92.614l15.067-10.132a63.5,63.5,0,0,0-12.08-17.965L197.971,74.649a38.953,38.953,0,0,1,12.08,17.965Z" transform="translate(-9.62 -3.527)"/><path class="g" d="M206.246,80.059a4.346,4.346,0,0,1,3.279-1.864,8.873,8.873,0,0,0,3.184-.51,4.525,4.525,0,0,0,1.977-1.819,15.872,15.872,0,0,0,.928-3.307c.2-.616-.791-.8-.987-.193-.345,1.072-.3,2.266-.957,3.222a3.694,3.694,0,0,1-2.968,1.54,9.252,9.252,0,0,0-2.855.409,5.312,5.312,0,0,0-2.366,1.867c-.374.521.384,1.183.763.656Z" transform="translate(-9.62 -3.527)"/><path class="g" d="M208.959,84.094a4.346,4.346,0,0,1,3.279-1.864,8.872,8.872,0,0,0,3.184-.51A4.525,4.525,0,0,0,217.4,79.9a15.874,15.874,0,0,0,.928-3.307c.2-.616-.791-.8-.987-.193-.345,1.072-.3,2.266-.957,3.222a3.694,3.694,0,0,1-2.968,1.54,9.252,9.252,0,0,0-2.855.409,5.312,5.312,0,0,0-2.366,1.867c-.374.521.384,1.183.763.656Z" transform="translate(-9.62 -3.527)"/><rect class="c" width="76.151" height="19.606" transform="translate(0.064 9.891) rotate(0.187)"/><circle class="f" cx="5.335" cy="5.335" r="5.335" transform="translate(3.798 14.36)"/><rect class="l" width="22.071" height="1.569" transform="translate(20.34 15.233) rotate(0.187)"/><rect class="l" width="48.641" height="1.569" transform="translate(20.328 18.999) rotate(0.187)"/><rect class="l" width="48.641" height="1.569" transform="translate(20.315 22.764) rotate(0.187)"/><rect class="c" width="76.151" height="19.606" transform="translate(0.064 62.12) rotate(0.187)"/><circle class="f" cx="5.335" cy="5.335" r="5.335" transform="translate(3.798 66.589)"/><rect class="l" width="22.071" height="1.569" transform="translate(20.34 67.462) rotate(0.187)"/><rect class="l" width="48.641" height="1.569" transform="translate(20.328 71.227) rotate(0.187)"/><rect class="l" width="48.641" height="1.569" transform="translate(20.315 74.993) rotate(0.187)"/><rect class="c" width="76.151" height="19.606" transform="translate(94.54 55.631) rotate(179.813)"/><circle class="f" cx="5.335" cy="5.335" r="5.335" transform="translate(80.073 40.493)"/><rect class="l" width="22.071" height="1.569" transform="translate(74.205 42.936) rotate(179.813)"/><rect class="l" width="48.641" height="1.569" transform="translate(74.218 46.702) rotate(179.813)"/><rect class="l" width="48.641" height="1.569" transform="translate(74.23 50.468) rotate(179.813)"/></g></g></svg>